# MagicaVoxel @ Ephtracy

# group
g plane

# material
mtllib plane.mtl
usemtl palette

# normals
vn -1 0 0
vn 1 0 0
vn 0 0 1
vn 0 0 -1
vn 0 -1 0
vn 0 1 0

# texcoords
vt 0.841797 0.5
vt 0.861328 0.5
vt 0.958984 0.5
vt 0.974609 0.5
vt 0.978516 0.5
vt 0.982422 0.5
vt 0.994141 0.5

# verts
v -8 3 1
v -8 3 -0
v -8 4 1
v -8 4 -0
v -7 3 2
v -7 3 1
v -7 4 2
v -7 4 1
v -6 3 3
v -6 3 2
v -6 3 -0
v -6 3 -1
v -6 4 3
v -6 4 2
v -6 4 1
v -6 4 -0
v -6 4 -1
v -6 5 1
v -6 5 -0
v -5 3 4
v -5 3 3
v -5 3 -1
v -5 3 -2
v -5 4 4
v -5 4 3
v -5 4 2
v -5 4 1
v -5 4 -1
v -5 4 -2
v -5 5 2
v -5 5 1
v -4 3 5
v -4 3 4
v -4 3 -2
v -4 3 -3
v -4 4 5
v -4 4 4
v -4 4 3
v -4 4 2
v -4 4 -0
v -4 4 -1
v -4 4 -2
v -4 4 -3
v -4 5 3
v -4 5 2
v -4 5 -0
v -4 5 -1
v -3 3 6
v -3 3 5
v -3 3 -3
v -3 3 -4
v -3 4 6
v -3 4 5
v -3 4 4
v -3 4 3
v -3 4 -1
v -3 4 -2
v -3 4 -3
v -3 4 -4
v -3 5 4
v -3 5 3
v -3 5 2
v -3 5 1
v -3 5 -0
v -3 5 -1
v -3 5 -2
v -3 6 2
v -3 6 1
v -3 6 -0
v -2 3 7
v -2 3 6
v -2 3 -7
v -2 3 -8
v -2 4 7
v -2 4 6
v -2 4 4
v -2 4 -2
v -2 4 -3
v -2 4 -7
v -2 4 -8
v -2 5 6
v -2 5 4
v -2 5 3
v -2 5 2
v -2 5 -0
v -2 5 -1
v -2 5 -2
v -2 5 -3
v -2 6 4
v -2 6 3
v -2 6 2
v -2 6 -0
v -2 6 -1
v -1 3 8
v -1 3 7
v -1 3 -4
v -1 3 -5
v -1 3 -6
v -1 3 -7
v -1 4 8
v -1 4 7
v -1 4 6
v -1 4 -3
v -1 4 -4
v -1 4 -5
v -1 4 -6
v -1 4 -7
v -1 4 -8
v -1 5 7
v -1 5 6
v -1 5 4
v -1 5 -1
v -1 5 -2
v -1 5 -3
v -1 5 -4
v -1 5 -5
v -1 5 -7
v -1 5 -8
v -1 6 6
v -1 6 4
v -1 6 3
v -1 6 2
v -1 6 1
v -1 6 -0
v -1 6 -1
v -1 6 -2
v -1 6 -4
v -1 7 3
v -1 7 -2
v 1 3 8
v 1 3 7
v 1 3 -4
v 1 3 -5
v 1 3 -6
v 1 3 -7
v 1 4 8
v 1 4 7
v 1 4 6
v 1 4 -3
v 1 4 -4
v 1 4 -5
v 1 4 -6
v 1 4 -7
v 1 4 -8
v 1 5 7
v 1 5 6
v 1 5 4
v 1 5 -1
v 1 5 -2
v 1 5 -3
v 1 5 -4
v 1 5 -5
v 1 5 -7
v 1 5 -8
v 1 6 6
v 1 6 4
v 1 6 3
v 1 6 2
v 1 6 1
v 1 6 -0
v 1 6 -1
v 1 6 -2
v 1 6 -4
v 1 7 3
v 1 7 -2
v 2 3 7
v 2 3 6
v 2 3 -7
v 2 3 -8
v 2 4 7
v 2 4 6
v 2 4 4
v 2 4 -2
v 2 4 -3
v 2 4 -7
v 2 4 -8
v 2 5 6
v 2 5 4
v 2 5 3
v 2 5 2
v 2 5 -0
v 2 5 -1
v 2 5 -2
v 2 5 -3
v 2 6 4
v 2 6 3
v 2 6 2
v 2 6 -0
v 2 6 -1
v 3 3 6
v 3 3 5
v 3 3 -3
v 3 3 -4
v 3 4 6
v 3 4 5
v 3 4 4
v 3 4 3
v 3 4 -1
v 3 4 -2
v 3 4 -3
v 3 4 -4
v 3 5 4
v 3 5 3
v 3 5 2
v 3 5 1
v 3 5 -0
v 3 5 -1
v 3 5 -2
v 3 6 2
v 3 6 1
v 3 6 -0
v 4 3 5
v 4 3 4
v 4 3 -2
v 4 3 -3
v 4 4 5
v 4 4 4
v 4 4 3
v 4 4 2
v 4 4 -0
v 4 4 -1
v 4 4 -2
v 4 4 -3
v 4 5 3
v 4 5 2
v 4 5 -0
v 4 5 -1
v 5 3 4
v 5 3 3
v 5 3 -1
v 5 3 -2
v 5 4 4
v 5 4 3
v 5 4 2
v 5 4 1
v 5 4 -1
v 5 4 -2
v 5 5 2
v 5 5 1
v 6 3 3
v 6 3 2
v 6 3 -0
v 6 3 -1
v 6 4 3
v 6 4 2
v 6 4 1
v 6 4 -0
v 6 4 -1
v 6 5 1
v 6 5 -0
v 7 3 2
v 7 3 1
v 7 4 2
v 7 4 1
v 8 3 1
v 8 3 -0
v 8 4 1
v 8 4 -0
v -1 3 8
v -1 4 8
v 1 3 8
v 1 4 8
v -2 3 7
v -2 4 7
v -1 3 7
v -1 4 7
v -1 5 7
v 1 3 7
v 1 4 7
v 1 5 7
v 2 3 7
v 2 4 7
v -3 3 6
v -3 4 6
v -2 3 6
v -2 4 6
v -2 5 6
v -1 4 6
v -1 5 6
v -1 6 6
v 1 4 6
v 1 5 6
v 1 6 6
v 2 3 6
v 2 4 6
v 2 5 6
v 3 3 6
v 3 4 6
v -4 3 5
v -4 4 5
v -3 3 5
v -3 4 5
v 3 3 5
v 3 4 5
v 4 3 5
v 4 4 5
v -5 3 4
v -5 4 4
v -4 3 4
v -4 4 4
v -3 4 4
v -3 5 4
v -2 4 4
v -2 5 4
v -2 6 4
v -1 5 4
v -1 6 4
v 1 5 4
v 1 6 4
v 2 4 4
v 2 5 4
v 2 6 4
v 3 4 4
v 3 5 4
v 4 3 4
v 4 4 4
v 5 3 4
v 5 4 4
v -6 3 3
v -6 4 3
v -5 3 3
v -5 4 3
v -4 4 3
v -4 5 3
v -3 4 3
v -3 5 3
v -1 6 3
v -1 7 3
v 1 6 3
v 1 7 3
v 3 4 3
v 3 5 3
v 4 4 3
v 4 5 3
v 5 3 3
v 5 4 3
v 6 3 3
v 6 4 3
v -7 3 2
v -7 4 2
v -6 3 2
v -6 4 2
v -5 4 2
v -5 5 2
v -4 4 2
v -4 5 2
v -3 5 2
v -3 6 2
v -2 5 2
v -2 6 2
v 2 5 2
v 2 6 2
v 3 5 2
v 3 6 2
v 4 4 2
v 4 5 2
v 5 4 2
v 5 5 2
v 6 3 2
v 6 4 2
v 7 3 2
v 7 4 2
v -8 3 1
v -8 4 1
v -7 3 1
v -7 4 1
v -6 4 1
v -6 5 1
v -5 4 1
v -5 5 1
v 5 4 1
v 5 5 1
v 6 4 1
v 6 5 1
v 7 3 1
v 7 4 1
v 8 3 1
v 8 4 1
v -2 3 -7
v -2 4 -7
v -1 3 -7
v -1 4 -7
v -1 5 -7
v 1 3 -7
v 1 4 -7
v 1 5 -7
v 2 3 -7
v 2 4 -7
v -8 3 -0
v -8 4 -0
v -7 3 -0
v -7 4 -0
v -6 3 -0
v -6 4 -0
v -6 5 -0
v -5 4 -0
v -5 5 -0
v -4 4 -0
v -4 5 -0
v -3 5 -0
v -3 6 -0
v -2 5 -0
v -2 6 -0
v 2 5 -0
v 2 6 -0
v 3 5 -0
v 3 6 -0
v 4 4 -0
v 4 5 -0
v 5 4 -0
v 5 5 -0
v 6 3 -0
v 6 4 -0
v 6 5 -0
v 7 3 -0
v 7 4 -0
v 8 3 -0
v 8 4 -0
v -6 3 -1
v -6 4 -1
v -5 3 -1
v -5 4 -1
v -4 4 -1
v -4 5 -1
v -3 4 -1
v -3 5 -1
v -2 5 -1
v -2 6 -1
v -1 5 -1
v -1 6 -1
v 1 5 -1
v 1 6 -1
v 2 5 -1
v 2 6 -1
v 3 4 -1
v 3 5 -1
v 4 4 -1
v 4 5 -1
v 5 3 -1
v 5 4 -1
v 6 3 -1
v 6 4 -1
v -5 3 -2
v -5 4 -2
v -4 3 -2
v -4 4 -2
v -3 4 -2
v -3 5 -2
v -2 4 -2
v -2 5 -2
v -1 6 -2
v -1 7 -2
v 1 6 -2
v 1 7 -2
v 2 4 -2
v 2 5 -2
v 3 4 -2
v 3 5 -2
v 4 3 -2
v 4 4 -2
v 5 3 -2
v 5 4 -2
v -4 3 -3
v -4 4 -3
v -3 3 -3
v -3 4 -3
v -2 4 -3
v -2 5 -3
v -1 4 -3
v -1 5 -3
v 1 4 -3
v 1 5 -3
v 2 4 -3
v 2 5 -3
v 3 3 -3
v 3 4 -3
v 4 3 -3
v 4 4 -3
v -3 3 -4
v -3 4 -4
v -1 3 -4
v -1 4 -4
v -1 5 -4
v -1 6 -4
v 1 3 -4
v 1 4 -4
v 1 5 -4
v 1 6 -4
v 3 3 -4
v 3 4 -4
v -1 4 -5
v -1 5 -5
v 1 4 -5
v 1 5 -5
v -2 3 -8
v -2 4 -8
v -1 3 -8
v -1 4 -8
v -1 5 -8
v 1 3 -8
v 1 4 -8
v 1 5 -8
v 2 3 -8
v 2 4 -8
v -1 3 8
v 1 3 8
v -2 3 7
v -1 3 7
v 1 3 7
v 2 3 7
v -3 3 6
v -2 3 6
v 2 3 6
v 3 3 6
v -4 3 5
v -3 3 5
v 3 3 5
v 4 3 5
v -5 3 4
v -4 3 4
v -3 3 4
v 3 3 4
v 4 3 4
v 5 3 4
v -6 3 3
v -5 3 3
v -4 3 3
v -3 3 3
v 3 3 3
v 4 3 3
v 5 3 3
v 6 3 3
v -7 3 2
v -6 3 2
v -5 3 2
v 5 3 2
v 6 3 2
v 7 3 2
v -8 3 1
v -7 3 1
v -6 3 1
v -5 3 1
v 5 3 1
v 6 3 1
v 7 3 1
v 8 3 1
v -8 3 -0
v -7 3 -0
v -6 3 -0
v 6 3 -0
v 7 3 -0
v 8 3 -0
v -6 3 -1
v -5 3 -1
v -4 3 -1
v 4 3 -1
v 5 3 -1
v 6 3 -1
v -5 3 -2
v -4 3 -2
v -3 3 -2
v 3 3 -2
v 4 3 -2
v 5 3 -2
v -4 3 -3
v -3 3 -3
v -1 3 -3
v 1 3 -3
v 3 3 -3
v 4 3 -3
v -3 3 -4
v -1 3 -4
v 1 3 -4
v 3 3 -4
v -1 3 -5
v 1 3 -5
v -1 3 -6
v 1 3 -6
v -2 3 -7
v -1 3 -7
v 1 3 -7
v 2 3 -7
v -2 3 -8
v -1 3 -8
v 1 3 -8
v 2 3 -8
v -1 4 8
v 1 4 8
v -2 4 7
v -1 4 7
v 1 4 7
v 2 4 7
v -3 4 6
v -2 4 6
v -1 4 6
v 1 4 6
v 2 4 6
v 3 4 6
v -4 4 5
v -3 4 5
v 3 4 5
v 4 4 5
v -5 4 4
v -4 4 4
v -3 4 4
v -2 4 4
v 2 4 4
v 3 4 4
v 4 4 4
v 5 4 4
v -6 4 3
v -5 4 3
v -4 4 3
v -3 4 3
v 3 4 3
v 4 4 3
v 5 4 3
v 6 4 3
v -7 4 2
v -6 4 2
v -5 4 2
v -4 4 2
v 4 4 2
v 5 4 2
v 6 4 2
v 7 4 2
v -8 4 1
v -7 4 1
v -6 4 1
v -5 4 1
v 5 4 1
v 6 4 1
v 7 4 1
v 8 4 1
v -8 4 -0
v -7 4 -0
v -6 4 -0
v -5 4 -0
v -4 4 -0
v 4 4 -0
v 5 4 -0
v 6 4 -0
v 7 4 -0
v 8 4 -0
v -6 4 -1
v -5 4 -1
v -4 4 -1
v -3 4 -1
v 3 4 -1
v 4 4 -1
v 5 4 -1
v 6 4 -1
v -5 4 -2
v -4 4 -2
v -3 4 -2
v -2 4 -2
v 2 4 -2
v 3 4 -2
v 4 4 -2
v 5 4 -2
v -4 4 -3
v -3 4 -3
v -2 4 -3
v -1 4 -3
v 1 4 -3
v 2 4 -3
v 3 4 -3
v 4 4 -3
v -3 4 -4
v -1 4 -4
v 1 4 -4
v 3 4 -4
v -1 4 -5
v 1 4 -5
v -1 4 -6
v 1 4 -6
v -2 4 -7
v -1 4 -7
v 1 4 -7
v 2 4 -7
v -2 4 -8
v -1 4 -8
v 1 4 -8
v 2 4 -8
v -1 5 7
v 1 5 7
v -2 5 6
v -1 5 6
v 1 5 6
v 2 5 6
v -3 5 4
v -2 5 4
v -1 5 4
v 1 5 4
v 2 5 4
v 3 5 4
v -4 5 3
v -3 5 3
v -2 5 3
v 2 5 3
v 3 5 3
v 4 5 3
v -5 5 2
v -4 5 2
v -3 5 2
v -2 5 2
v 2 5 2
v 3 5 2
v 4 5 2
v 5 5 2
v -6 5 1
v -5 5 1
v -4 5 1
v -3 5 1
v 3 5 1
v 4 5 1
v 5 5 1
v 6 5 1
v -6 5 -0
v -5 5 -0
v -4 5 -0
v -3 5 -0
v -2 5 -0
v 2 5 -0
v 3 5 -0
v 4 5 -0
v 5 5 -0
v 6 5 -0
v -4 5 -1
v -3 5 -1
v -2 5 -1
v -1 5 -1
v 1 5 -1
v 2 5 -1
v 3 5 -1
v 4 5 -1
v -3 5 -2
v -2 5 -2
v -1 5 -2
v 1 5 -2
v 2 5 -2
v 3 5 -2
v -2 5 -3
v -1 5 -3
v 1 5 -3
v 2 5 -3
v -1 5 -4
v 1 5 -4
v -1 5 -5
v 1 5 -5
v -1 5 -7
v 1 5 -7
v -1 5 -8
v 1 5 -8
v -1 6 6
v 1 6 6
v -2 6 4
v -1 6 4
v 1 6 4
v 2 6 4
v -2 6 3
v -1 6 3
v 1 6 3
v 2 6 3
v -3 6 2
v -2 6 2
v -1 6 2
v 1 6 2
v 2 6 2
v 3 6 2
v -3 6 1
v -1 6 1
v 1 6 1
v 3 6 1
v -3 6 -0
v -2 6 -0
v -1 6 -0
v 1 6 -0
v 2 6 -0
v 3 6 -0
v -2 6 -1
v -1 6 -1
v 1 6 -1
v 2 6 -1
v -1 6 -2
v 1 6 -2
v -1 6 -4
v 1 6 -4
v -1 7 3
v 1 7 3
v -1 7 -2
v 1 7 -2

# faces
f 3/2/1 2/2/1 1/2/1
f 4/2/1 2/2/1 3/2/1
f 7/5/1 6/5/1 5/5/1
f 8/5/1 6/5/1 7/5/1
f 13/5/1 10/5/1 9/5/1
f 14/5/1 10/5/1 13/5/1
f 16/5/1 12/5/1 11/5/1
f 17/5/1 12/5/1 16/5/1
f 18/5/1 16/5/1 15/5/1
f 19/5/1 16/5/1 18/5/1
f 24/6/1 21/6/1 20/6/1
f 25/6/1 21/6/1 24/6/1
f 28/6/1 23/6/1 22/6/1
f 29/6/1 23/6/1 28/6/1
f 30/3/1 27/3/1 26/3/1
f 31/3/1 27/3/1 30/3/1
f 36/5/1 33/5/1 32/5/1
f 37/5/1 33/5/1 36/5/1
f 42/3/1 35/3/1 34/3/1
f 43/3/1 35/3/1 42/3/1
f 44/5/1 39/5/1 38/5/1
f 45/5/1 39/5/1 44/5/1
f 46/5/1 41/5/1 40/5/1
f 47/5/1 41/5/1 46/5/1
f 52/5/1 49/5/1 48/5/1
f 53/5/1 49/5/1 52/5/1
f 58/3/1 51/3/1 50/3/1
f 59/3/1 51/3/1 58/3/1
f 60/3/1 55/3/1 54/3/1
f 61/3/1 55/3/1 60/3/1
f 65/3/1 57/3/1 56/3/1
f 66/3/1 57/3/1 65/3/1
f 67/3/1 63/3/1 62/3/1
f 68/4/1 64/4/1 63/4/1
f 68/3/1 63/3/1 67/3/1
f 69/4/1 64/4/1 68/4/1
f 74/5/1 71/5/1 70/5/1
f 75/5/1 71/5/1 74/5/1
f 79/7/1 73/7/1 72/7/1
f 80/7/1 73/7/1 79/7/1
f 81/7/1 76/7/1 75/7/1
f 82/7/1 76/7/1 81/7/1
f 87/5/1 78/5/1 77/5/1
f 88/5/1 78/5/1 87/5/1
f 89/5/1 83/5/1 82/5/1
f 90/4/1 84/4/1 83/4/1
f 90/5/1 83/5/1 89/5/1
f 91/4/1 84/4/1 90/4/1
f 92/3/1 86/3/1 85/3/1
f 93/3/1 86/3/1 92/3/1
f 100/5/1 95/5/1 94/5/1
f 101/5/1 95/5/1 100/5/1
f 104/5/1 97/5/1 96/5/1
f 105/3/1 98/3/1 97/3/1
f 105/5/1 97/5/1 104/5/1
f 106/5/1 99/5/1 98/5/1
f 106/3/1 98/3/1 105/3/1
f 107/5/1 99/5/1 106/5/1
f 109/7/1 102/7/1 101/7/1
f 110/7/1 102/7/1 109/7/1
f 114/5/1 104/5/1 103/5/1
f 115/3/1 105/3/1 104/3/1
f 115/5/1 104/5/1 114/5/1
f 116/3/1 105/3/1 115/3/1
f 117/7/1 108/7/1 107/7/1
f 118/7/1 108/7/1 117/7/1
f 119/7/1 111/7/1 110/7/1
f 120/7/1 111/7/1 119/7/1
f 125/5/1 113/5/1 112/5/1
f 126/3/1 114/3/1 113/3/1
f 126/3/1 115/3/1 114/3/1
f 126/5/1 113/5/1 125/5/1
f 127/3/1 115/3/1 126/3/1
f 128/3/1 125/3/1 124/3/1
f 128/3/1 124/3/1 123/3/1
f 128/3/1 126/3/1 125/3/1
f 128/3/1 123/3/1 122/3/1
f 128/3/1 122/3/1 121/3/1
f 129/3/1 126/3/1 128/3/1
f 130/5/2 131/5/2 136/5/2
f 136/5/2 131/5/2 137/5/2
f 132/5/2 133/5/2 140/5/2
f 133/3/2 134/3/2 141/3/2
f 140/5/2 133/5/2 141/5/2
f 134/5/2 135/5/2 142/5/2
f 141/3/2 134/3/2 142/3/2
f 142/5/2 135/5/2 143/5/2
f 137/7/2 138/7/2 145/7/2
f 145/7/2 138/7/2 146/7/2
f 139/5/2 140/5/2 150/5/2
f 140/3/2 141/3/2 151/3/2
f 150/5/2 140/5/2 151/5/2
f 151/3/2 141/3/2 152/3/2
f 143/7/2 144/7/2 153/7/2
f 153/7/2 144/7/2 154/7/2
f 146/7/2 147/7/2 155/7/2
f 155/7/2 147/7/2 156/7/2
f 148/5/2 149/5/2 161/5/2
f 149/3/2 150/3/2 162/3/2
f 150/3/2 151/3/2 162/3/2
f 161/5/2 149/5/2 162/5/2
f 162/3/2 151/3/2 163/3/2
f 160/3/2 161/3/2 164/3/2
f 159/3/2 160/3/2 164/3/2
f 161/3/2 162/3/2 164/3/2
f 158/3/2 159/3/2 164/3/2
f 157/3/2 158/3/2 164/3/2
f 164/3/2 162/3/2 165/3/2
f 166/5/2 167/5/2 170/5/2
f 170/5/2 167/5/2 171/5/2
f 168/7/2 169/7/2 175/7/2
f 175/7/2 169/7/2 176/7/2
f 171/7/2 172/7/2 177/7/2
f 177/7/2 172/7/2 178/7/2
f 173/5/2 174/5/2 183/5/2
f 183/5/2 174/5/2 184/5/2
f 178/5/2 179/5/2 185/5/2
f 179/4/2 180/4/2 186/4/2
f 185/5/2 179/5/2 186/5/2
f 186/4/2 180/4/2 187/4/2
f 181/3/2 182/3/2 188/3/2
f 188/3/2 182/3/2 189/3/2
f 190/5/2 191/5/2 194/5/2
f 194/5/2 191/5/2 195/5/2
f 192/3/2 193/3/2 200/3/2
f 200/3/2 193/3/2 201/3/2
f 196/3/2 197/3/2 202/3/2
f 202/3/2 197/3/2 203/3/2
f 198/3/2 199/3/2 207/3/2
f 207/3/2 199/3/2 208/3/2
f 204/3/2 205/3/2 209/3/2
f 205/4/2 206/4/2 210/4/2
f 209/3/2 205/3/2 210/3/2
f 210/4/2 206/4/2 211/4/2
f 212/5/2 213/5/2 216/5/2
f 216/5/2 213/5/2 217/5/2
f 214/3/2 215/3/2 222/3/2
f 222/3/2 215/3/2 223/3/2
f 218/5/2 219/5/2 224/5/2
f 224/5/2 219/5/2 225/5/2
f 220/5/2 221/5/2 226/5/2
f 226/5/2 221/5/2 227/5/2
f 228/6/2 229/6/2 232/6/2
f 232/6/2 229/6/2 233/6/2
f 230/6/2 231/6/2 236/6/2
f 236/6/2 231/6/2 237/6/2
f 234/3/2 235/3/2 238/3/2
f 238/3/2 235/3/2 239/3/2
f 240/5/2 241/5/2 244/5/2
f 244/5/2 241/5/2 245/5/2
f 242/5/2 243/5/2 247/5/2
f 247/5/2 243/5/2 248/5/2
f 246/5/2 247/5/2 249/5/2
f 249/5/2 247/5/2 250/5/2
f 251/5/2 252/5/2 253/5/2
f 253/5/2 252/5/2 254/5/2
f 255/2/2 256/2/2 257/2/2
f 257/2/2 256/2/2 258/2/2
f 261/5/3 260/5/3 259/5/3
f 262/5/3 260/5/3 261/5/3
f 265/5/3 264/5/3 263/5/3
f 266/5/3 264/5/3 265/5/3
f 269/7/3 267/7/3 266/7/3
f 270/7/3 267/7/3 269/7/3
f 271/5/3 269/5/3 268/5/3
f 272/5/3 269/5/3 271/5/3
f 275/5/3 274/5/3 273/5/3
f 276/5/3 274/5/3 275/5/3
f 278/7/3 277/7/3 276/7/3
f 279/7/3 277/7/3 278/7/3
f 282/7/3 280/7/3 279/7/3
f 283/7/3 280/7/3 282/7/3
f 285/7/3 282/7/3 281/7/3
f 286/7/3 282/7/3 285/7/3
f 287/5/3 285/5/3 284/5/3
f 288/5/3 285/5/3 287/5/3
f 291/5/3 290/5/3 289/5/3
f 292/5/3 290/5/3 291/5/3
f 295/5/3 294/5/3 293/5/3
f 296/5/3 294/5/3 295/5/3
f 299/6/3 298/6/3 297/6/3
f 300/6/3 298/6/3 299/6/3
f 303/3/3 302/3/3 301/3/3
f 304/3/3 302/3/3 303/3/3
f 306/5/3 305/5/3 304/5/3
f 307/5/3 305/5/3 306/5/3
f 311/5/3 309/5/3 308/5/3
f 312/5/3 309/5/3 311/5/3
f 313/3/3 311/3/3 310/3/3
f 314/3/3 311/3/3 313/3/3
f 317/6/3 316/6/3 315/6/3
f 318/6/3 316/6/3 317/6/3
f 321/5/3 320/5/3 319/5/3
f 322/5/3 320/5/3 321/5/3
f 325/5/3 324/5/3 323/5/3
f 326/5/3 324/5/3 325/5/3
f 329/3/3 328/3/3 327/3/3
f 330/3/3 328/3/3 329/3/3
f 333/5/3 332/5/3 331/5/3
f 334/5/3 332/5/3 333/5/3
f 337/5/3 336/5/3 335/5/3
f 338/5/3 336/5/3 337/5/3
f 341/5/3 340/5/3 339/5/3
f 342/5/3 340/5/3 341/5/3
f 345/3/3 344/3/3 343/3/3
f 346/3/3 344/3/3 345/3/3
f 349/3/3 348/3/3 347/3/3
f 350/3/3 348/3/3 349/3/3
f 353/3/3 352/3/3 351/3/3
f 354/3/3 352/3/3 353/3/3
f 357/3/3 356/3/3 355/3/3
f 358/3/3 356/3/3 357/3/3
f 361/5/3 360/5/3 359/5/3
f 362/5/3 360/5/3 361/5/3
f 365/2/3 364/2/3 363/2/3
f 366/2/3 364/2/3 365/2/3
f 369/5/3 368/5/3 367/5/3
f 370/5/3 368/5/3 369/5/3
f 373/5/3 372/5/3 371/5/3
f 374/5/3 372/5/3 373/5/3
f 377/2/3 376/2/3 375/2/3
f 378/2/3 376/2/3 377/2/3
f 381/7/3 380/7/3 379/7/3
f 382/7/3 380/7/3 381/7/3
f 385/7/3 383/7/3 382/7/3
f 386/7/3 383/7/3 385/7/3
f 387/7/3 385/7/3 384/7/3
f 388/7/3 385/7/3 387/7/3
f 389/2/4 390/2/4 391/2/4
f 391/2/4 390/2/4 392/2/4
f 391/5/4 392/5/4 393/5/4
f 393/5/4 392/5/4 394/5/4
f 394/5/4 395/5/4 396/5/4
f 396/5/4 395/5/4 397/5/4
f 396/3/4 397/3/4 398/3/4
f 398/3/4 397/3/4 399/3/4
f 400/4/4 401/4/4 402/4/4
f 402/4/4 401/4/4 403/4/4
f 404/4/4 405/4/4 406/4/4
f 406/4/4 405/4/4 407/4/4
f 408/3/4 409/3/4 410/3/4
f 410/3/4 409/3/4 411/3/4
f 410/5/4 411/5/4 413/5/4
f 413/5/4 411/5/4 414/5/4
f 412/5/4 413/5/4 415/5/4
f 415/5/4 413/5/4 416/5/4
f 415/2/4 416/2/4 417/2/4
f 417/2/4 416/2/4 418/2/4
f 419/5/4 420/5/4 421/5/4
f 421/5/4 420/5/4 422/5/4
f 423/5/4 424/5/4 425/5/4
f 425/5/4 424/5/4 426/5/4
f 427/3/4 428/3/4 429/3/4
f 429/3/4 428/3/4 430/3/4
f 431/3/4 432/3/4 433/3/4
f 433/3/4 432/3/4 434/3/4
f 435/5/4 436/5/4 437/5/4
f 437/5/4 436/5/4 438/5/4
f 439/5/4 440/5/4 441/5/4
f 441/5/4 440/5/4 442/5/4
f 443/6/4 444/6/4 445/6/4
f 445/6/4 444/6/4 446/6/4
f 447/3/4 448/3/4 449/3/4
f 449/3/4 448/3/4 450/3/4
f 451/3/4 452/3/4 453/3/4
f 453/3/4 452/3/4 454/3/4
f 455/3/4 456/3/4 457/3/4
f 457/3/4 456/3/4 458/3/4
f 459/6/4 460/6/4 461/6/4
f 461/6/4 460/6/4 462/6/4
f 463/3/4 464/3/4 465/3/4
f 465/3/4 464/3/4 466/3/4
f 467/5/4 468/5/4 469/5/4
f 469/5/4 468/5/4 470/5/4
f 471/5/4 472/5/4 473/5/4
f 473/5/4 472/5/4 474/5/4
f 475/3/4 476/3/4 477/3/4
f 477/3/4 476/3/4 478/3/4
f 479/3/4 480/3/4 481/3/4
f 481/3/4 480/3/4 482/3/4
f 483/3/4 484/3/4 487/3/4
f 487/3/4 484/3/4 488/3/4
f 485/3/4 486/3/4 489/3/4
f 489/3/4 486/3/4 490/3/4
f 491/3/4 492/3/4 493/3/4
f 493/3/4 492/3/4 494/3/4
f 495/7/4 496/7/4 497/7/4
f 497/7/4 496/7/4 498/7/4
f 497/1/4 498/1/4 500/1/4
f 498/7/4 499/7/4 501/7/4
f 500/1/4 498/1/4 501/1/4
f 501/7/4 499/7/4 502/7/4
f 500/7/4 501/7/4 503/7/4
f 503/7/4 501/7/4 504/7/4
f 508/5/5 506/5/5 505/5/5
f 509/5/5 506/5/5 508/5/5
f 512/5/5 508/5/5 507/5/5
f 512/5/5 510/5/5 509/5/5
f 512/5/5 509/5/5 508/5/5
f 513/5/5 510/5/5 512/5/5
f 516/5/5 512/5/5 511/5/5
f 516/5/5 514/5/5 513/5/5
f 516/5/5 513/5/5 512/5/5
f 517/5/5 514/5/5 516/5/5
f 520/5/5 516/5/5 515/5/5
f 520/5/5 518/5/5 517/5/5
f 520/5/5 517/5/5 516/5/5
f 521/5/5 518/5/5 520/5/5
f 522/5/5 518/5/5 521/5/5
f 523/5/5 518/5/5 522/5/5
f 526/6/5 520/6/5 519/6/5
f 527/3/5 521/3/5 520/3/5
f 527/6/5 520/6/5 526/6/5
f 528/5/5 522/5/5 521/5/5
f 528/3/5 521/3/5 527/3/5
f 529/3/5 523/3/5 522/3/5
f 529/5/5 522/5/5 528/5/5
f 530/6/5 524/6/5 523/6/5
f 530/3/5 523/3/5 529/3/5
f 531/6/5 524/6/5 530/6/5
f 534/5/5 526/5/5 525/5/5
f 535/3/5 527/3/5 526/3/5
f 535/5/5 526/5/5 534/5/5
f 536/5/5 532/5/5 531/5/5
f 536/3/5 531/3/5 530/3/5
f 537/5/5 532/5/5 536/5/5
f 540/5/5 534/5/5 533/5/5
f 541/4/5 535/4/5 534/4/5
f 541/5/5 534/5/5 540/5/5
f 542/3/5 527/3/5 535/3/5
f 542/4/5 535/4/5 541/4/5
f 543/3/5 536/3/5 530/3/5
f 543/4/5 537/4/5 536/4/5
f 544/5/5 538/5/5 537/5/5
f 544/4/5 537/4/5 543/4/5
f 545/5/5 538/5/5 544/5/5
f 547/2/5 540/2/5 539/2/5
f 548/5/5 541/5/5 540/5/5
f 548/2/5 540/2/5 547/2/5
f 548/5/5 542/5/5 541/5/5
f 549/5/5 542/5/5 548/5/5
f 550/5/5 545/5/5 544/5/5
f 550/5/5 544/5/5 543/5/5
f 551/2/5 546/2/5 545/2/5
f 551/5/5 545/5/5 550/5/5
f 552/2/5 546/2/5 551/2/5
f 553/5/5 542/5/5 549/5/5
f 554/3/5 527/3/5 542/3/5
f 554/5/5 542/5/5 553/5/5
f 555/5/5 529/5/5 528/5/5
f 555/3/5 527/3/5 554/3/5
f 555/5/5 528/5/5 527/5/5
f 555/5/5 530/5/5 529/5/5
f 556/3/5 543/3/5 530/3/5
f 556/5/5 530/5/5 555/5/5
f 557/5/5 550/5/5 543/5/5
f 557/3/5 543/3/5 556/3/5
f 558/5/5 550/5/5 557/5/5
f 559/6/5 555/6/5 554/6/5
f 560/5/5 556/5/5 555/5/5
f 560/6/5 555/6/5 559/6/5
f 561/5/5 556/5/5 560/5/5
f 562/5/5 556/5/5 561/5/5
f 563/6/5 557/6/5 556/6/5
f 563/5/5 556/5/5 562/5/5
f 564/6/5 557/6/5 563/6/5
f 565/3/5 561/3/5 560/3/5
f 566/5/5 562/5/5 561/5/5
f 566/3/5 561/3/5 565/3/5
f 567/5/5 562/5/5 566/5/5
f 568/5/5 562/5/5 567/5/5
f 569/3/5 563/3/5 562/3/5
f 569/5/5 562/5/5 568/5/5
f 570/3/5 563/3/5 569/3/5
f 571/3/5 567/3/5 566/3/5
f 572/5/5 568/5/5 567/5/5
f 572/3/5 567/3/5 571/3/5
f 573/3/5 569/3/5 568/3/5
f 573/5/5 568/5/5 572/5/5
f 574/3/5 569/3/5 573/3/5
f 575/5/5 573/5/5 572/5/5
f 576/5/5 573/5/5 575/5/5
f 577/3/5 576/3/5 575/3/5
f 578/3/5 576/3/5 577/3/5
f 580/5/5 578/5/5 577/5/5
f 581/5/5 578/5/5 580/5/5
f 583/7/5 580/7/5 579/7/5
f 584/1/5 581/1/5 580/1/5
f 584/7/5 580/7/5 583/7/5
f 585/7/5 582/7/5 581/7/5
f 585/1/5 581/1/5 584/1/5
f 586/7/5 582/7/5 585/7/5
f 587/5/6 588/5/6 590/5/6
f 590/5/6 588/5/6 591/5/6
f 589/5/6 590/5/6 594/5/6
f 594/5/6 590/5/6 595/5/6
f 591/5/6 592/5/6 596/5/6
f 596/5/6 592/5/6 597/5/6
f 593/5/6 594/5/6 600/5/6
f 597/5/6 598/5/6 601/5/6
f 599/5/6 600/5/6 604/5/6
f 600/5/6 594/5/6 605/5/6
f 604/5/6 600/5/6 605/5/6
f 605/5/6 594/5/6 606/5/6
f 601/5/6 602/5/6 607/5/6
f 597/5/6 601/5/6 607/5/6
f 607/5/6 602/5/6 608/5/6
f 608/5/6 602/5/6 609/5/6
f 603/6/6 604/6/6 612/6/6
f 604/3/6 605/3/6 613/3/6
f 612/6/6 604/6/6 613/6/6
f 613/3/6 605/3/6 614/3/6
f 608/3/6 609/3/6 615/3/6
f 609/6/6 610/6/6 616/6/6
f 615/3/6 609/3/6 616/3/6
f 616/6/6 610/6/6 617/6/6
f 611/5/6 612/5/6 620/5/6
f 612/3/6 613/3/6 621/3/6
f 620/5/6 612/5/6 621/5/6
f 621/3/6 613/3/6 622/3/6
f 616/3/6 617/3/6 623/3/6
f 617/5/6 618/5/6 624/5/6
f 623/3/6 617/3/6 624/3/6
f 624/5/6 618/5/6 625/5/6
f 619/5/6 620/5/6 628/5/6
f 620/4/6 621/4/6 629/4/6
f 628/5/6 620/5/6 629/5/6
f 629/4/6 621/4/6 630/4/6
f 624/4/6 625/4/6 631/4/6
f 625/5/6 626/5/6 632/5/6
f 631/4/6 625/4/6 632/4/6
f 632/5/6 626/5/6 633/5/6
f 627/2/6 628/2/6 635/2/6
f 628/5/6 629/5/6 636/5/6
f 635/2/6 628/2/6 636/2/6
f 636/5/6 629/5/6 637/5/6
f 632/5/6 633/5/6 642/5/6
f 633/2/6 634/2/6 643/2/6
f 642/5/6 633/5/6 643/5/6
f 643/2/6 634/2/6 644/2/6
f 637/5/6 638/5/6 645/5/6
f 638/3/6 639/3/6 646/3/6
f 645/5/6 638/5/6 646/5/6
f 646/3/6 639/3/6 647/3/6
f 640/3/6 641/3/6 650/3/6
f 641/5/6 642/5/6 651/5/6
f 650/3/6 641/3/6 651/3/6
f 651/5/6 642/5/6 652/5/6
f 646/6/6 647/6/6 653/6/6
f 647/5/6 648/5/6 654/5/6
f 653/6/6 647/6/6 654/6/6
f 654/5/6 648/5/6 655/5/6
f 649/5/6 650/5/6 658/5/6
f 650/6/6 651/6/6 659/6/6
f 658/5/6 650/5/6 659/5/6
f 659/6/6 651/6/6 660/6/6
f 654/3/6 655/3/6 661/3/6
f 655/5/6 656/5/6 662/5/6
f 661/3/6 655/3/6 662/3/6
f 662/5/6 656/5/6 663/5/6
f 657/5/6 658/5/6 666/5/6
f 658/3/6 659/3/6 667/3/6
f 666/5/6 658/5/6 667/5/6
f 667/3/6 659/3/6 668/3/6
f 663/3/6 664/3/6 669/3/6
f 662/3/6 663/3/6 669/3/6
f 669/3/6 664/3/6 670/3/6
f 665/3/6 666/3/6 671/3/6
f 666/3/6 667/3/6 671/3/6
f 671/3/6 667/3/6 672/3/6
f 673/3/6 674/3/6 675/3/6
f 675/3/6 674/3/6 676/3/6
f 675/5/6 676/5/6 678/5/6
f 678/5/6 676/5/6 679/5/6
f 677/7/6 678/7/6 681/7/6
f 681/7/6 678/7/6 682/7/6
f 679/7/6 680/7/6 683/7/6
f 683/7/6 680/7/6 684/7/6
f 685/7/6 686/7/6 688/7/6
f 688/7/6 686/7/6 689/7/6
f 687/7/6 688/7/6 692/7/6
f 692/7/6 688/7/6 693/7/6
f 689/7/6 690/7/6 694/7/6
f 694/7/6 690/7/6 695/7/6
f 691/3/6 692/3/6 698/3/6
f 698/3/6 692/3/6 699/3/6
f 695/3/6 696/3/6 700/3/6
f 700/3/6 696/3/6 701/3/6
f 698/5/6 699/5/6 704/5/6
f 697/5/6 698/5/6 704/5/6
f 704/5/6 699/5/6 705/5/6
f 705/5/6 699/5/6 706/5/6
f 701/5/6 702/5/6 707/5/6
f 700/5/6 701/5/6 707/5/6
f 707/5/6 702/5/6 708/5/6
f 708/5/6 702/5/6 709/5/6
f 704/3/6 705/3/6 712/3/6
f 703/3/6 704/3/6 712/3/6
f 712/3/6 705/3/6 713/3/6
f 713/3/6 705/3/6 714/3/6
f 709/3/6 710/3/6 715/3/6
f 708/3/6 709/3/6 715/3/6
f 715/3/6 710/3/6 716/3/6
f 716/3/6 710/3/6 717/3/6
f 711/5/6 712/5/6 719/5/6
f 712/3/6 713/3/6 720/3/6
f 719/5/6 712/5/6 720/5/6
f 713/4/6 714/4/6 721/4/6
f 720/3/6 713/3/6 721/3/6
f 721/4/6 714/4/6 722/4/6
f 715/4/6 716/4/6 725/4/6
f 716/3/6 717/3/6 726/3/6
f 725/4/6 716/4/6 726/4/6
f 717/5/6 718/5/6 727/5/6
f 726/3/6 717/3/6 727/3/6
f 727/5/6 718/5/6 728/5/6
f 721/5/6 722/5/6 729/5/6
f 722/4/6 723/4/6 730/4/6
f 729/5/6 722/5/6 730/5/6
f 730/4/6 723/4/6 731/4/6
f 724/4/6 725/4/6 734/4/6
f 725/5/6 726/5/6 735/5/6
f 734/4/6 725/4/6 735/4/6
f 735/5/6 726/5/6 736/5/6
f 730/3/6 731/3/6 737/3/6
f 731/4/6 732/4/6 738/4/6
f 737/3/6 731/3/6 738/3/6
f 738/4/6 732/4/6 739/4/6
f 733/4/6 734/4/6 740/4/6
f 734/3/6 735/3/6 741/3/6
f 740/4/6 734/4/6 741/4/6
f 741/3/6 735/3/6 742/3/6
f 738/5/6 739/5/6 743/5/6
f 743/5/6 739/5/6 744/5/6
f 740/5/6 741/5/6 745/5/6
f 745/5/6 741/5/6 746/5/6
f 747/3/6 748/3/6 749/3/6
f 749/3/6 748/3/6 750/3/6
f 751/7/6 752/7/6 753/7/6
f 753/7/6 752/7/6 754/7/6
f 755/7/6 756/7/6 758/7/6
f 758/7/6 756/7/6 759/7/6
f 757/5/6 758/5/6 761/5/6
f 758/4/6 759/4/6 762/4/6
f 761/5/6 758/5/6 762/5/6
f 759/5/6 760/5/6 763/5/6
f 762/4/6 759/4/6 763/4/6
f 763/5/6 760/5/6 764/5/6
f 761/4/6 762/4/6 766/4/6
f 766/4/6 762/4/6 767/4/6
f 763/4/6 764/4/6 768/4/6
f 768/4/6 764/4/6 769/4/6
f 766/3/6 767/3/6 771/3/6
f 765/3/6 766/3/6 771/3/6
f 771/3/6 767/3/6 772/3/6
f 769/3/6 770/3/6 773/3/6
f 768/3/6 769/3/6 773/3/6
f 773/3/6 770/3/6 774/3/6
f 771/4/6 772/4/6 775/4/6
f 775/4/6 772/4/6 776/4/6
f 776/4/6 772/4/6 777/4/6
f 773/4/6 774/4/6 778/4/6
f 778/4/6 774/4/6 779/4/6
f 779/4/6 774/4/6 780/4/6
f 776/3/6 777/3/6 781/3/6
f 781/3/6 777/3/6 782/3/6
f 778/3/6 779/3/6 783/3/6
f 783/3/6 779/3/6 784/3/6
f 785/3/6 786/3/6 787/3/6
f 787/3/6 786/3/6 788/3/6
f 789/3/6 790/3/6 791/3/6
f 791/3/6 790/3/6 792/3/6
