# MagicaVoxel @ Ephtracy

# group
g SkullClosedMouth

# material
mtllib SkullClosedMouth.mtl
usemtl palette

# normals
vn -1 0 0
vn 1 0 0
vn 0 0 1
vn 0 0 -1
vn 0 -1 0
vn 0 1 0

# texcoords
vt 0.958984 0.5
vt 0.962891 0.5
vt 0.994141 0.5

# verts
v -4 4 4
v -4 4 -1
v -4 5 -1
v -4 5 -2
v -4 8 -1
v -4 8 -2
v -4 9 4
v -4 9 3
v -4 9 -0
v -4 9 -1
v -4 10 3
v -4 10 -0
v -3 1 4
v -3 1 3
v -3 1 -0
v -3 2 4
v -3 2 3
v -3 2 2
v -3 3 4
v -3 3 3
v -3 3 2
v -3 4 4
v -3 4 -0
v -3 4 -1
v -3 4 -2
v -3 5 -1
v -3 5 -2
v -3 8 -1
v -3 8 -2
v -3 9 4
v -3 9 3
v -3 9 -0
v -3 9 -1
v -3 9 -2
v -3 10 4
v -3 10 3
v -3 10 -0
v -3 10 -1
v -2 0 4
v -2 0 3
v -2 0 2
v -2 0 -1
v -2 1 4
v -2 1 3
v -2 1 2
v -2 1 -0
v -2 4 -0
v -2 4 -1
v -1 1 4
v -1 1 3
v -1 2 4
v -1 2 3
v -1 3 4
v -1 3 3
v -1 4 4
v -1 4 3
v -1 5 4
v -1 5 3
v -1 8 4
v -1 8 3
v 2 1 4
v 2 1 3
v 2 2 4
v 2 2 3
v 2 3 4
v 2 3 3
v 2 4 4
v 2 4 3
v 3 5 4
v 3 5 3
v 3 8 4
v 3 8 3
v -3 5 4
v -3 5 3
v -3 8 4
v -3 8 3
v -2 1 4
v -2 1 3
v -2 2 4
v -2 2 3
v -2 3 4
v -2 3 3
v -2 4 4
v -2 4 3
v 1 1 4
v 1 1 3
v 1 2 4
v 1 2 3
v 1 3 4
v 1 3 3
v 1 4 4
v 1 4 3
v 1 5 4
v 1 5 3
v 1 8 4
v 1 8 3
v 2 0 4
v 2 0 3
v 2 0 2
v 2 0 -1
v 2 1 4
v 2 1 3
v 2 1 2
v 2 1 -0
v 2 4 -0
v 2 4 -1
v 3 1 4
v 3 1 3
v 3 1 -0
v 3 2 4
v 3 2 3
v 3 2 2
v 3 3 4
v 3 3 3
v 3 3 2
v 3 4 4
v 3 4 -0
v 3 4 -1
v 3 4 -2
v 3 5 -1
v 3 5 -2
v 3 8 -1
v 3 8 -2
v 3 9 4
v 3 9 3
v 3 9 -0
v 3 9 -1
v 3 9 -2
v 3 10 4
v 3 10 3
v 3 10 -0
v 3 10 -1
v 4 4 4
v 4 4 -1
v 4 5 -1
v 4 5 -2
v 4 8 -1
v 4 8 -2
v 4 9 4
v 4 9 3
v 4 9 -0
v 4 9 -1
v 4 10 3
v 4 10 -0
v -4 4 4
v -4 9 4
v -3 1 4
v -3 2 4
v -3 3 4
v -3 4 4
v -3 5 4
v -3 8 4
v -3 9 4
v -3 10 4
v -2 0 4
v -2 1 4
v -2 2 4
v -2 3 4
v -2 4 4
v -1 0 4
v -1 1 4
v -1 2 4
v -1 3 4
v -1 4 4
v -1 5 4
v -1 8 4
v 1 0 4
v 1 1 4
v 1 2 4
v 1 3 4
v 1 4 4
v 1 5 4
v 1 8 4
v 2 0 4
v 2 1 4
v 2 2 4
v 2 3 4
v 2 4 4
v 3 1 4
v 3 2 4
v 3 3 4
v 3 4 4
v 3 5 4
v 3 8 4
v 3 9 4
v 3 10 4
v 4 4 4
v 4 9 4
v -4 9 3
v -4 10 3
v -3 2 3
v -3 3 3
v -3 5 3
v -3 8 3
v -3 9 3
v -3 10 3
v -2 1 3
v -2 2 3
v -2 3 3
v -2 4 3
v -1 1 3
v -1 2 3
v -1 3 3
v -1 4 3
v -1 5 3
v -1 8 3
v 1 1 3
v 1 2 3
v 1 3 3
v 1 4 3
v 1 5 3
v 1 8 3
v 2 1 3
v 2 2 3
v 2 3 3
v 2 4 3
v 3 2 3
v 3 3 3
v 3 5 3
v 3 8 3
v 3 9 3
v 3 10 3
v 4 9 3
v 4 10 3
v -4 9 -0
v -4 10 -0
v -3 1 -0
v -3 4 -0
v -3 9 -0
v -3 10 -0
v -2 1 -0
v -2 4 -0
v 2 1 -0
v 2 4 -0
v 3 1 -0
v 3 4 -0
v 3 9 -0
v 3 10 -0
v 4 9 -0
v 4 10 -0
v -4 4 -1
v -4 5 -1
v -4 8 -1
v -4 9 -1
v -3 4 -1
v -3 5 -1
v -3 8 -1
v -3 9 -1
v -3 10 -1
v -2 0 -1
v -2 4 -1
v 2 0 -1
v 2 4 -1
v 3 4 -1
v 3 5 -1
v 3 8 -1
v 3 9 -1
v 3 10 -1
v 4 4 -1
v 4 5 -1
v 4 8 -1
v 4 9 -1
v -4 5 -2
v -4 8 -2
v -3 4 -2
v -3 5 -2
v -3 8 -2
v -3 9 -2
v 3 4 -2
v 3 5 -2
v 3 8 -2
v 3 9 -2
v 4 5 -2
v 4 8 -2
v -2 0 4
v -1 0 4
v 1 0 4
v 2 0 4
v -2 0 3
v -1 0 3
v 1 0 3
v 2 0 3
v -2 0 2
v -1 0 2
v 1 0 2
v 2 0 2
v -2 0 -1
v 2 0 -1
v -3 1 4
v -2 1 4
v 2 1 4
v 3 1 4
v -3 1 3
v -2 1 3
v 2 1 3
v 3 1 3
v -2 1 2
v 2 1 2
v -3 1 -0
v -2 1 -0
v 2 1 -0
v 3 1 -0
v -3 3 4
v -2 3 4
v -1 3 4
v 1 3 4
v 2 3 4
v 3 3 4
v -3 3 3
v -2 3 3
v -1 3 3
v 1 3 3
v 2 3 3
v 3 3 3
v -4 4 4
v -3 4 4
v -2 4 4
v -1 4 4
v 1 4 4
v 2 4 4
v 3 4 4
v 4 4 4
v -2 4 3
v -1 4 3
v 1 4 3
v 2 4 3
v -3 4 -0
v -2 4 -0
v 2 4 -0
v 3 4 -0
v -4 4 -1
v -3 4 -1
v -2 4 -1
v 2 4 -1
v 3 4 -1
v 4 4 -1
v -3 4 -2
v 3 4 -2
v -4 5 -1
v -3 5 -1
v 3 5 -1
v 4 5 -1
v -4 5 -2
v -3 5 -2
v 3 5 -2
v 4 5 -2
v -3 8 4
v -1 8 4
v 1 8 4
v 3 8 4
v -3 8 3
v -1 8 3
v 1 8 3
v 3 8 3
v -2 1 4
v -1 1 4
v 1 1 4
v 2 1 4
v -2 1 3
v -1 1 3
v 1 1 3
v 2 1 3
v -3 2 4
v -2 2 4
v -1 2 4
v 1 2 4
v 2 2 4
v 3 2 4
v -3 2 3
v -2 2 3
v -1 2 3
v 1 2 3
v 2 2 3
v 3 2 3
v -3 5 4
v -1 5 4
v 1 5 4
v 3 5 4
v -3 5 3
v -1 5 3
v 1 5 3
v 3 5 3
v -4 8 -1
v -3 8 -1
v 3 8 -1
v 4 8 -1
v -4 8 -2
v -3 8 -2
v 3 8 -2
v 4 8 -2
v -4 9 4
v -3 9 4
v 3 9 4
v 4 9 4
v -4 9 3
v -3 9 3
v 3 9 3
v 4 9 3
v -4 9 -0
v -3 9 -0
v 3 9 -0
v 4 9 -0
v -4 9 -1
v -3 9 -1
v 3 9 -1
v 4 9 -1
v -3 9 -2
v 3 9 -2
v -3 10 4
v 3 10 4
v -4 10 3
v -3 10 3
v 3 10 3
v 4 10 3
v -4 10 -0
v -3 10 -0
v 3 10 -0
v 4 10 -0
v -3 10 -1
v 3 10 -1

# faces
f 3/2/1 2/2/1 1/2/1
f 5/2/1 3/2/1 1/2/1
f 5/2/1 4/2/1 3/2/1
f 6/2/1 4/2/1 5/2/1
f 7/2/1 5/2/1 1/2/1
f 8/2/1 5/2/1 7/2/1
f 9/2/1 5/2/1 8/2/1
f 10/2/1 5/2/1 9/2/1
f 11/2/1 9/2/1 8/2/1
f 12/2/1 9/2/1 11/2/1
f 16/1/1 14/1/1 13/1/1
f 17/2/1 15/2/1 14/2/1
f 17/1/1 14/1/1 16/1/1
f 18/2/1 15/2/1 17/2/1
f 20/3/1 18/3/1 17/3/1
f 21/2/1 15/2/1 18/2/1
f 21/3/1 18/3/1 20/3/1
f 22/2/1 20/2/1 19/2/1
f 22/2/1 21/2/1 20/2/1
f 23/2/1 15/2/1 21/2/1
f 23/2/1 21/2/1 22/2/1
f 26/2/1 25/2/1 24/2/1
f 27/2/1 25/2/1 26/2/1
f 33/2/1 29/2/1 28/2/1
f 34/2/1 29/2/1 33/2/1
f 35/2/1 31/2/1 30/2/1
f 36/2/1 31/2/1 35/2/1
f 37/2/1 33/2/1 32/2/1
f 38/2/1 33/2/1 37/2/1
f 43/1/1 40/1/1 39/1/1
f 44/3/1 41/3/1 40/3/1
f 44/1/1 40/1/1 43/1/1
f 45/2/1 42/2/1 41/2/1
f 45/3/1 41/3/1 44/3/1
f 46/2/1 42/2/1 45/2/1
f 47/2/1 42/2/1 46/2/1
f 48/2/1 42/2/1 47/2/1
f 51/1/1 50/1/1 49/1/1
f 52/1/1 50/1/1 51/1/1
f 55/2/1 54/2/1 53/2/1
f 56/2/1 54/2/1 55/2/1
f 59/2/1 58/2/1 57/2/1
f 60/2/1 58/2/1 59/2/1
f 63/1/1 62/1/1 61/1/1
f 64/1/1 62/1/1 63/1/1
f 67/2/1 66/2/1 65/2/1
f 68/2/1 66/2/1 67/2/1
f 71/2/1 70/2/1 69/2/1
f 72/2/1 70/2/1 71/2/1
f 73/2/2 74/2/2 75/2/2
f 75/2/2 74/2/2 76/2/2
f 77/1/2 78/1/2 79/1/2
f 79/1/2 78/1/2 80/1/2
f 81/2/2 82/2/2 83/2/2
f 83/2/2 82/2/2 84/2/2
f 85/1/2 86/1/2 87/1/2
f 87/1/2 86/1/2 88/1/2
f 89/2/2 90/2/2 91/2/2
f 91/2/2 90/2/2 92/2/2
f 93/2/2 94/2/2 95/2/2
f 95/2/2 94/2/2 96/2/2
f 97/1/2 98/1/2 101/1/2
f 98/3/2 99/3/2 102/3/2
f 101/1/2 98/1/2 102/1/2
f 99/2/2 100/2/2 103/2/2
f 102/3/2 99/3/2 103/3/2
f 103/2/2 100/2/2 104/2/2
f 104/2/2 100/2/2 105/2/2
f 105/2/2 100/2/2 106/2/2
f 107/1/2 108/1/2 110/1/2
f 108/2/2 109/2/2 111/2/2
f 110/1/2 108/1/2 111/1/2
f 111/2/2 109/2/2 112/2/2
f 111/3/2 112/3/2 114/3/2
f 112/2/2 109/2/2 115/2/2
f 114/3/2 112/3/2 115/3/2
f 113/2/2 114/2/2 116/2/2
f 114/2/2 115/2/2 116/2/2
f 115/2/2 109/2/2 117/2/2
f 116/2/2 115/2/2 117/2/2
f 118/2/2 119/2/2 120/2/2
f 120/2/2 119/2/2 121/2/2
f 122/2/2 123/2/2 127/2/2
f 127/2/2 123/2/2 128/2/2
f 124/2/2 125/2/2 129/2/2
f 129/2/2 125/2/2 130/2/2
f 126/2/2 127/2/2 131/2/2
f 131/2/2 127/2/2 132/2/2
f 133/2/2 134/2/2 135/2/2
f 133/2/2 135/2/2 137/2/2
f 135/2/2 136/2/2 137/2/2
f 137/2/2 136/2/2 138/2/2
f 133/2/2 137/2/2 139/2/2
f 139/2/2 137/2/2 140/2/2
f 140/2/2 137/2/2 141/2/2
f 141/2/2 137/2/2 142/2/2
f 140/2/2 141/2/2 143/2/2
f 143/2/2 141/2/2 144/2/2
f 150/2/3 146/2/3 145/2/3
f 151/2/3 146/2/3 150/2/3
f 152/2/3 146/2/3 151/2/3
f 153/2/3 146/2/3 152/2/3
f 156/1/3 148/1/3 147/1/3
f 157/1/3 148/1/3 156/1/3
f 158/2/3 150/2/3 149/2/3
f 158/2/3 151/2/3 150/2/3
f 159/2/3 151/2/3 158/2/3
f 160/1/3 156/1/3 155/1/3
f 161/1/3 156/1/3 160/1/3
f 164/2/3 151/2/3 159/2/3
f 165/2/3 151/2/3 164/2/3
f 166/2/3 153/2/3 152/2/3
f 166/2/3 154/2/3 153/2/3
f 167/2/3 161/2/3 160/2/3
f 168/1/3 162/1/3 161/1/3
f 168/2/3 161/2/3 167/2/3
f 169/1/3 162/1/3 168/1/3
f 170/2/3 165/2/3 164/2/3
f 170/2/3 164/2/3 163/2/3
f 170/2/3 166/2/3 165/2/3
f 171/2/3 166/2/3 170/2/3
f 172/2/3 166/2/3 171/2/3
f 173/2/3 154/2/3 166/2/3
f 173/2/3 166/2/3 172/2/3
f 174/1/3 168/1/3 167/1/3
f 175/1/3 168/1/3 174/1/3
f 178/2/3 172/2/3 171/2/3
f 179/1/3 176/1/3 175/1/3
f 180/1/3 176/1/3 179/1/3
f 181/2/3 178/2/3 177/2/3
f 182/2/3 172/2/3 178/2/3
f 182/2/3 178/2/3 181/2/3
f 183/2/3 172/2/3 182/2/3
f 184/2/3 154/2/3 173/2/3
f 185/2/3 154/2/3 184/2/3
f 186/2/3 154/2/3 185/2/3
f 187/2/3 183/2/3 182/2/3
f 187/2/3 185/2/3 184/2/3
f 187/2/3 184/2/3 183/2/3
f 188/2/3 185/2/3 187/2/3
f 195/2/3 190/2/3 189/2/3
f 196/2/3 190/2/3 195/2/3
f 198/3/3 192/3/3 191/3/3
f 199/3/3 192/3/3 198/3/3
f 201/3/3 198/3/3 197/3/3
f 201/3/3 200/3/3 199/3/3
f 201/3/3 199/3/3 198/3/3
f 202/3/3 200/3/3 201/3/3
f 203/3/3 200/3/3 202/3/3
f 204/3/3 200/3/3 203/3/3
f 205/3/3 194/3/3 193/3/3
f 206/3/3 194/3/3 205/3/3
f 208/3/3 203/3/3 202/3/3
f 209/3/3 203/3/3 208/3/3
f 213/3/3 208/3/3 207/3/3
f 213/3/3 209/3/3 208/3/3
f 213/3/3 210/3/3 209/3/3
f 214/3/3 210/3/3 213/3/3
f 215/3/3 210/3/3 214/3/3
f 216/3/3 210/3/3 215/3/3
f 217/3/3 215/3/3 214/3/3
f 218/3/3 215/3/3 217/3/3
f 219/3/3 212/3/3 211/3/3
f 220/3/3 212/3/3 219/3/3
f 223/2/3 222/2/3 221/2/3
f 224/2/3 222/2/3 223/2/3
f 225/2/4 226/2/4 229/2/4
f 229/2/4 226/2/4 230/2/4
f 227/2/4 228/2/4 231/2/4
f 231/2/4 228/2/4 232/2/4
f 233/2/4 234/2/4 235/2/4
f 235/2/4 234/2/4 236/2/4
f 237/2/4 238/2/4 239/2/4
f 239/2/4 238/2/4 240/2/4
f 241/2/4 242/2/4 245/2/4
f 245/2/4 242/2/4 246/2/4
f 243/2/4 244/2/4 247/2/4
f 247/2/4 244/2/4 248/2/4
f 250/2/4 251/2/4 252/2/4
f 252/2/4 251/2/4 253/2/4
f 248/2/4 249/2/4 257/2/4
f 257/2/4 249/2/4 258/2/4
f 254/2/4 255/2/4 259/2/4
f 259/2/4 255/2/4 260/2/4
f 256/2/4 257/2/4 261/2/4
f 261/2/4 257/2/4 262/2/4
f 263/2/4 264/2/4 266/2/4
f 266/2/4 264/2/4 267/2/4
f 265/2/4 266/2/4 269/2/4
f 267/2/4 268/2/4 269/2/4
f 266/2/4 267/2/4 269/2/4
f 269/2/4 268/2/4 270/2/4
f 270/2/4 268/2/4 271/2/4
f 271/2/4 268/2/4 272/2/4
f 270/2/4 271/2/4 273/2/4
f 273/2/4 271/2/4 274/2/4
f 279/1/5 276/1/5 275/1/5
f 280/2/5 277/2/5 276/2/5
f 280/1/5 276/1/5 279/1/5
f 281/1/5 278/1/5 277/1/5
f 281/2/5 277/2/5 280/2/5
f 282/1/5 278/1/5 281/1/5
f 283/3/5 280/3/5 279/3/5
f 284/2/5 281/2/5 280/2/5
f 284/3/5 280/3/5 283/3/5
f 285/3/5 282/3/5 281/3/5
f 285/2/5 281/2/5 284/2/5
f 286/3/5 282/3/5 285/3/5
f 287/2/5 284/2/5 283/2/5
f 287/2/5 285/2/5 284/2/5
f 287/2/5 286/2/5 285/2/5
f 288/2/5 286/2/5 287/2/5
f 293/1/5 290/1/5 289/1/5
f 294/1/5 290/1/5 293/1/5
f 295/1/5 292/1/5 291/1/5
f 296/1/5 292/1/5 295/1/5
f 297/2/5 294/2/5 293/2/5
f 298/2/5 296/2/5 295/2/5
f 299/2/5 297/2/5 293/2/5
f 300/2/5 297/2/5 299/2/5
f 301/2/5 296/2/5 298/2/5
f 302/2/5 296/2/5 301/2/5
f 309/2/5 304/2/5 303/2/5
f 310/2/5 304/2/5 309/2/5
f 311/2/5 306/2/5 305/2/5
f 312/2/5 306/2/5 311/2/5
f 313/2/5 308/2/5 307/2/5
f 314/2/5 308/2/5 313/2/5
f 323/2/5 318/2/5 317/2/5
f 324/2/5 318/2/5 323/2/5
f 325/2/5 320/2/5 319/2/5
f 326/2/5 320/2/5 325/2/5
f 327/2/5 316/2/5 315/2/5
f 330/2/5 322/2/5 321/2/5
f 331/2/5 328/2/5 327/2/5
f 331/2/5 327/2/5 315/2/5
f 332/2/5 328/2/5 331/2/5
f 333/2/5 328/2/5 332/2/5
f 334/2/5 330/2/5 329/2/5
f 335/2/5 322/2/5 330/2/5
f 335/2/5 330/2/5 334/2/5
f 336/2/5 322/2/5 335/2/5
f 337/2/5 333/2/5 332/2/5
f 337/2/5 334/2/5 333/2/5
f 337/2/5 335/2/5 334/2/5
f 338/2/5 335/2/5 337/2/5
f 343/2/5 340/2/5 339/2/5
f 344/2/5 340/2/5 343/2/5
f 345/2/5 342/2/5 341/2/5
f 346/2/5 342/2/5 345/2/5
f 351/2/5 348/2/5 347/2/5
f 352/2/5 348/2/5 351/2/5
f 353/2/5 350/2/5 349/2/5
f 354/2/5 350/2/5 353/2/5
f 355/1/6 356/1/6 359/1/6
f 359/1/6 356/1/6 360/1/6
f 357/1/6 358/1/6 361/1/6
f 361/1/6 358/1/6 362/1/6
f 363/1/6 364/1/6 369/1/6
f 369/1/6 364/1/6 370/1/6
f 365/1/6 366/1/6 371/1/6
f 371/1/6 366/1/6 372/1/6
f 367/1/6 368/1/6 373/1/6
f 373/1/6 368/1/6 374/1/6
f 375/2/6 376/2/6 379/2/6
f 379/2/6 376/2/6 380/2/6
f 377/2/6 378/2/6 381/2/6
f 381/2/6 378/2/6 382/2/6
f 383/2/6 384/2/6 387/2/6
f 387/2/6 384/2/6 388/2/6
f 385/2/6 386/2/6 389/2/6
f 389/2/6 386/2/6 390/2/6
f 391/2/6 392/2/6 395/2/6
f 395/2/6 392/2/6 396/2/6
f 393/2/6 394/2/6 397/2/6
f 397/2/6 394/2/6 398/2/6
f 399/2/6 400/2/6 403/2/6
f 403/2/6 400/2/6 404/2/6
f 401/2/6 402/2/6 405/2/6
f 405/2/6 402/2/6 406/2/6
f 404/2/6 405/2/6 407/2/6
f 407/2/6 405/2/6 408/2/6
f 409/2/6 410/2/6 412/2/6
f 412/2/6 410/2/6 413/2/6
f 411/2/6 412/2/6 415/2/6
f 413/2/6 414/2/6 415/2/6
f 412/2/6 413/2/6 415/2/6
f 415/2/6 414/2/6 416/2/6
f 416/2/6 414/2/6 417/2/6
f 417/2/6 414/2/6 418/2/6
f 416/2/6 417/2/6 419/2/6
f 419/2/6 417/2/6 420/2/6
